/* XPM */
static const char*ktmapp[]={
"16 16 37 1",
"l c #808080",
"s c #c0cfc0",
"c c #e1e1e1",
"w c #c0c0bf",
"I c #3e4f3e",
"D c #626262",
"o c #a0a0a0",
"G c #000f00",
"t c #e0e0df",
"v c #565665",
"# c #004000",
"j c #808060",
". c #3e5f3e",
"m c #a2a2a2",
"H c #001f00",
"i c #c0c0b0",
"f c #c0c0ff",
"z c #000000",
"u c #4f4f40",
"F c #c2c2c2",
"b c #d2d2d2",
"A c #202020",
"a c #002f00",
"C c #001000",
"x c #8f808f",
"p c #404040",
"h c None",
"B c #d1d1d0",
"r c #a0a0af",
"E c #80807f",
"d c #b1b1b1",
"k c #002000",
"n c #606060",
"q c #717162",
"g c #ffffff",
"e c #001e00",
"y c #b6b6b6",
".######aa######.",
"#bcccccdbcccccde",
"#cfgggghcggggfhe",
"#cggggghcggggghe",
"#cccccijjicccche",
"#cggggghcggggghe",
"#cfgggghcggggfhk",
"#cggggghcggggghk",
"#cccccijjidllchk",
"#cggggghmnngolpk",
"#cfgggghqrgsgtuk",
"#cggggghvwgxttyz",
"#cccccijAooghBlC",
"#cggggghDEAwnnpk",
"#FhhhhhoFpnlplnk",
".eeeeeeGCkkkkkHI"};
