/* XPM */
static char*ktmapp[]={
"16 16 13 1",
"b c #808080",
"i c #ffa858",
"h c #a0a0a0",
"c c #c3c3c3",
"# c #004000",
"e c #c0c0ff",
"g c #000000",
"f c #303030",
"j c #ffdca8",
". c None",
"d c #585858",
"k c #dcdcdc",
"a c #ffffff",
".##############.",
"#aaaaaabaaaaaab#",
"#aaaaaabaaaaaab#",
"#accccdddccccab#",
"#aeaaaabaaaaeab#",
"#aaaaaabaaaaaab#",
"#aaaaaabaaaaaab#",
"#accccdddccccab#",
"#aeaaaabaafgfab#",
"#aaaaaabagcccgb#",
"#aaaaaabfchiicf#",
"#accccddgcibjkg#",
"#aeaaaabfcijakf#",
"#aaaaaabagckkgb#",
"#bbbbbbbbbfgfbb#",
".##############."};
