/* XPM */
static char*ktmpath[]={
"16 16 5 1",
"a c #ffa858",
"b c #c3c3c3",
"# c #000000",
"c c #ffdca8",
". c None",
"................",
"................",
"......###.......",
"....###aa##.....",
"..###bb##aa###..",
"###aa##bb##aaa##",
"#bb##aa###b###a#",
"#bbbb##aaa##b#a#",
"#bbbbbb###a#b#a#",
"#bbbbbbbb#a#b#a#",
".##bbb.bb#a#b#a#",
"#cc###.bb#a#b###",
"#cccc#.bb#a###..",
"#ccc#.##b###....",
"#cc#....##......",
".##....bb......."};
