/* XPM */
static const char*ktmsystem[]={
"16 16 6 1",
"a c #808080",
"c c #c3c3c3",
"b c #00ff00",
"# c #000000",
". c None",
"d c #ffffff",
".##############.",
"#..............#",
"#a############.#",
"#a############.#",
"#a##b#########.#",
"#a############c#",
"#a############c#",
"#a############c#",
"#a############c#",
"#a############c#",
"#cccccccccccccc#",
"#cccccccccccccc#",
".##############.",
"....#a.d.a#.....",
"..##.......##...",
"..###########..."};
