/* XPM */
static char*ktpath[]={
"32 32 7 1",
"d c #ffa858",
"e c #a0a0a0",
"c c #c3c3c3",
"# c #000000",
"a c #ffdca8",
". c None",
"b c #dcdcdc",
"...............##...............",
"...............#a##.............",
"..............##aaa##...##......",
"..............#b##aaa##.#a##....",
"..............#bbb##aaa##aaa##..",
"..........##..#bbbbc##aaaaaaa#..",
"..........#a###bbbcccc##aaaaa#..",
".........##aaa##bcc##ccc##aaa##.",
".........#b##aaa##c#a##ccc##aad#",
".........#bbb##aaa##aaa##ccc##d#",
".....##..#bbbbc##aaaaaaa#cccc#d#",
".....#a###bbbcccc##aaaaa#ccce#d#",
"....##aaa##bcc##ccc##aaa##cee#d#",
"....#b##aaa##c#a##ccc##aad#ee#d#",
"....#bbb##aaa##aaa##ccc##d#ee#d#",
"....#bbbbc##aaaaaaa#cccc#d#ee#d#",
"....#bbbcccc##aaaaa#ccce#d#ee#d#",
"....#bbccccccc##aaa##cee#d#ee#d#",
"....#bcccccccccc##aad#ee#d#ee#d#",
"..#####ccccccccccc##d#ee#d##e###",
".#aaaaa#ccccccccccc#d#ee#d#.###.",
"#aaa#########ccccce#d#ee#d#.....",
"#aaaaaaaaaaa#ccccee#d#ee#d#.....",
"#aaaa#######cccceee#d#ee#d#.....",
"#aaaaaaaa#ccccceeee#d##e###.....",
"#aaaa#####cccceeeee#d#.###......",
"#aaaaaaa#.##ceeeeee#d#..........",
"#aaaa####...##eeeee#d#..........",
".#aaaaa#......##eee#d#..........",
"..#####.........##e###..........",
"..................###...........",
"................................"};
