/* XPM */
static char*ktsystem[]={
"32 32 8 1",
"b c #808080",
"d c #a0a0a0",
"c c #c3c3c3",
"# c #000000",
". c None",
"e c #585858",
"f c #a0a0a4",
"a c #ffffff",
"................................",
".##############################.",
"#aaaaaaaaaaaaaaaaaaaaaaaaaaaaab#",
"#a............................b#",
"#a.bbbbbbbbbbbbbbbbbbbbbbbbbb.b#",
"#a.b########################a.b#",
"#a.b########################a.b#",
"#a.b########################a.b#",
"#a.b########################a.b#",
"#a.b########################a.b#",
"#a.b########################acb#",
"#a.b########################acb#",
"#a.b########################acb#",
"#a.b########################acb#",
"#a.b########################acb#",
"#a.b########################acb#",
"#a.b########################acb#",
"#a.b########################acb#",
"#a.b########################acb#",
"#a.b########################acb#",
"#a.baaaaaaaaaaaaaaaaaaaaaaaaacb#",
"#a.cccccccccccccccccccccccccccb#",
"#a.ccccccccccdcdcdccccccccccccb#",
"#abcccccccccccccccccccccccccccb#",
".#bbbbbbbbbbbbbbbbbbbbbbbbbbbbb#",
"..##############################",
".........#ebf..aa.cdbe#.........",
".........#ebf..aa.cdbe#.........",
"......###################.......",
".....#aaaaaaaaaaaaaaaaaaa#......",
".....#bbbbbbbbbbbbbbbbbbb#......",
".....#####################......"};
