/* XPM */
/* Drawn  by Stephan Kanthak for the K Desktop Environment */
/* See http://www.kde.org */
static const char*ktuser[]={
"32 32 11 1",
"a c #ffffff",
"# c #000000",
"b c #808080",
"c c #c0c0c0",
"d c #00ff00",
"e c #c05800",
"f c #ffa858",
"g c #004000",
"h c #585858",
"i c #a0a0a4",
". c None",
"................................",
".##############################.",
"#aaaaaaaaaaaaaaaaaaaaaaaaaaaaab#",
"#accccccccccccccccccccccccccccb#",
"#acbbbbbbbbbbbbbbbbbbbbbbbbbbcb#",
"#acb########################acb#",
"#acb#d######################acb#",
"#acb##d#####################acb#",
"#acb#d######################acb#",
"#acb####ddd#####eeeeeeeeeee#acb#",
"#acb###########eeeeeeeeeeeeeec##",
"#acb############eeeeeeeee#######",
"#acb#############feeeee#########",
"#acb#############fffe###########",
"#acb#############fff############",
"#acb#############eef############",
"#acb############fffffe#fff######",
"#acb###########ffffffe#fff######",
"#acb############eeffff#eef##efe#",
"#acb############eeeff#ffff##fff#",
"#acbaaaaaaaaaaaa#fff#ffffffffff#",
"#accccccccccccccc#ffgg#fffffff##",
"#accccccccccccbcbc##ff#eefffff##",
"#abccccccccccccccccc#ff#fffffff#",
".#bbbbbbbbbbbbbbbbb#ffff###ffff#",
"..#################ffff##a#ffff#",
".........#hbiccaac#ff##aa#ffffe#",
".........#hbiccaaci##h#a#fffe##.",
"......###################fe##...",
".....#aaaaaaaaaaaaaaaaaa###.....",
".....#bbbbbbbbbbbbbbbbbbb#......",
".....#####################......"};

